<svg width="19" height="34" viewBox="0 0 19 34" fill="none" xmlns="http://www.w3.org/2000/svg">
<path d="M1.54839 18.1214H5.27533V32.6284C5.27533 32.9148 5.52079 33.1469 5.82372 33.1469H12.1429C12.4458 33.1469 12.6913 32.9148 12.6913 32.6284V18.1898H16.9757C17.2543 18.1898 17.4887 17.9921 17.5205 17.7305L18.1712 12.3897C18.1891 12.2428 18.1398 12.0956 18.0359 11.9854C17.9318 11.8751 17.7828 11.8119 17.6265 11.8119H12.6915V8.46409C12.6915 7.45488 13.2662 6.94312 14.3998 6.94312C14.5614 6.94312 17.6265 6.94312 17.6265 6.94312C17.9295 6.94312 18.1749 6.71094 18.1749 6.42463V1.52233C18.1749 1.23592 17.9295 1.00384 17.6265 1.00384H13.1797C13.1483 1.00239 13.0787 1 12.976 1C12.2044 1 9.52248 1.14321 7.40395 2.98595C5.05664 5.028 5.38293 7.47303 5.46091 7.89695V11.8118H1.54839C1.24546 11.8118 1 12.0439 1 12.3303V17.6028C1 17.8892 1.24546 18.1214 1.54839 18.1214Z" fill="#FAFAFA" stroke="#FAFAFA" stroke-width="0.645161"/>
</svg>
