<svg width="34" height="34" viewBox="0 0 34 34" fill="none" xmlns="http://www.w3.org/2000/svg">
<g clip-path="url(#clip0_2_104)">
<path d="M33.2293 6.2941C32.6952 6.53101 32.146 6.73095 31.5849 6.89327C32.2492 6.14198 32.7557 5.25798 33.0649 4.29063C33.1342 4.07379 33.0624 3.83645 32.8841 3.69464C32.7061 3.55272 32.4588 3.53572 32.2628 3.65187C31.0712 4.35863 29.7855 4.86654 28.4375 5.16355C27.0796 3.83667 25.2352 3.08154 23.3286 3.08154C19.304 3.08154 16.0297 6.35574 16.0297 10.3802C16.0297 10.6972 16.0498 11.0124 16.0895 11.3233C11.0953 10.8848 6.45232 8.43007 3.264 4.51908C3.15038 4.37968 2.97533 4.30456 2.79612 4.31892C2.6168 4.33296 2.45568 4.43408 2.36509 4.5895C1.71843 5.6991 1.37656 6.96818 1.37656 8.25941C1.37656 10.0181 2.00447 11.6867 3.11363 12.9906C2.77638 12.8738 2.4491 12.7278 2.13674 12.5544C1.96904 12.461 1.76438 12.4625 1.59778 12.558C1.43107 12.6535 1.32655 12.8292 1.32216 13.0213C1.3214 13.0536 1.3214 13.086 1.3214 13.1188C1.3214 15.7439 2.73426 18.1073 4.89436 19.3955C4.70878 19.377 4.52332 19.3501 4.33906 19.3149C4.1491 19.2786 3.95376 19.3452 3.82566 19.4901C3.69734 19.6348 3.65489 19.8366 3.71401 20.0209C4.51356 22.5171 6.57209 24.3533 9.06067 24.9131C6.99665 26.2058 4.63629 26.883 2.15845 26.883C1.64143 26.883 1.12145 26.8526 0.612551 26.7924C0.359744 26.7623 0.118015 26.9116 0.0319184 27.152C-0.0541784 27.3925 0.0370733 27.6607 0.252151 27.7986C3.43532 29.8395 7.11598 30.9183 10.896 30.9183C18.3271 30.9183 22.9758 27.4141 25.5669 24.4745C28.798 20.8089 30.6511 15.9571 30.6511 11.1632C30.6511 10.963 30.648 10.7607 30.6419 10.5591C31.9167 9.59868 33.0142 8.43632 33.9073 7.10034C34.043 6.89744 34.0283 6.62928 33.8711 6.4425C33.7142 6.25561 33.4526 6.19517 33.2293 6.2941Z" fill="#F8F7F7"/>
</g>
<defs>
<clipPath id="clip0_2_104">
<rect width="34" height="34" fill="white"/>
</clipPath>
</defs>
</svg>
