<svg width="34" height="34" viewBox="0 0 34 34" fill="none" xmlns="http://www.w3.org/2000/svg">
<path d="M2.28132 0.0332031H5.33329L7.29918 6.08255H7.4893L9.36414 0.0332031H12.4423L8.91564 8.88768V15.169H5.88632V9.16938L2.28132 0.0332031ZM12.7628 6.55144C12.7628 5.66332 13.1277 4.95749 13.8581 4.43056C14.5875 3.90369 15.5679 3.64026 16.7999 3.64026C17.9217 3.64026 18.8404 3.91863 19.5561 4.47366C20.2736 5.02868 20.6314 5.74281 20.6314 6.61771V12.5412C20.6314 13.522 20.2794 14.2925 19.5777 14.8509C18.8752 15.4092 17.9075 15.6893 16.6768 15.6893C15.4909 15.6893 14.5423 15.4009 13.8302 14.8244C13.1191 14.2478 12.7628 13.4724 12.7628 12.4964V6.55144ZM15.5527 12.7118C15.5527 13.0282 15.6483 13.2702 15.8418 13.4441C16.0349 13.6165 16.3103 13.7009 16.6686 13.7009C17.036 13.7009 17.328 13.6148 17.5439 13.4392C17.7601 13.2619 17.8687 13.0199 17.8687 12.7118V6.46525C17.8687 6.21503 17.7576 6.01289 17.5373 5.85882C17.317 5.7047 17.0274 5.6268 16.6686 5.6268C16.3385 5.6268 16.0692 5.7047 15.8629 5.85882C15.6558 6.01289 15.5527 6.21503 15.5527 6.46525V12.7118ZM30.5463 3.8242V15.2933H27.8315V14.0274C27.3303 14.4947 26.8101 14.8492 26.2682 15.0945C25.7272 15.3364 25.2012 15.459 24.6924 15.459C24.0646 15.459 23.5906 15.2883 23.2725 14.947C22.9543 14.6056 22.7953 14.0937 22.7953 13.411V3.8242H25.511V12.6157C25.511 12.8891 25.5681 13.0846 25.6816 13.2072C25.796 13.3282 25.9799 13.3895 26.2343 13.3895C26.4347 13.3895 26.6874 13.3083 26.9913 13.1476C27.297 12.9869 27.577 12.7814 27.8313 12.5312V3.8242H30.5463ZM28.0022 24.1229C27.8688 23.9754 27.6567 23.8992 27.3651 23.8992C27.0603 23.8992 26.8416 23.9754 26.7091 24.1229C26.5765 24.2719 26.5102 24.5188 26.5102 24.8635V25.5776H28.2018V24.8635C28.2018 24.5188 28.1355 24.2719 28.0022 24.1229ZM19.9787 29.4995C20.1244 29.5591 20.2785 29.5873 20.4409 29.5873C20.6762 29.5873 20.8468 29.5309 20.9579 29.415C21.0688 29.3006 21.1235 29.1101 21.1235 28.8483V24.7193C21.1235 24.441 21.0556 24.2306 20.9198 24.0864C20.783 23.9422 20.5835 23.871 20.325 23.871C20.1882 23.871 20.0532 23.8975 19.9198 23.9505C19.7864 24.0052 19.6547 24.0897 19.5246 24.2024V29.2095C19.6804 29.3454 19.832 29.4415 19.9787 29.4995ZM32.572 20.7577C32.572 18.7695 30.5297 17.1573 28.0129 17.1573C24.4225 17.0363 20.7484 16.9833 17 16.9898C13.2529 16.9832 9.5787 17.0362 5.98699 17.1573C3.47145 17.1573 1.42933 18.7694 1.42933 20.7577C1.27812 22.3301 1.21264 23.9041 1.21849 25.4782C1.21271 27.0522 1.27812 28.6263 1.42933 30.2004C1.42933 32.187 3.47145 33.7991 5.98699 33.7991C9.5787 33.9184 13.2529 33.9714 17 33.9665C20.7484 33.9714 24.4225 33.9184 28.0129 33.7991C30.5297 33.7991 32.572 32.187 32.572 30.2004C32.7227 28.6263 32.7881 27.0522 32.7814 25.4782C32.7881 23.9041 32.7227 22.3301 32.572 20.7577ZM8.05182 30.777V30.8963H5.89541V30.777V21.3592H3.66443V21.2416V19.7405V19.6228H10.2833V19.7405V21.2416V21.3592H8.05182V30.777ZM15.7229 22.6664V30.777V30.8963H13.8083V30.777V29.9867C13.4546 30.323 13.0879 30.5765 12.7065 30.7521C12.3242 30.9261 11.9539 31.0139 11.5943 31.0139C11.1519 31.0139 10.8184 30.8913 10.5939 30.6477C10.369 30.4025 10.2567 30.0347 10.2567 29.5442V29.4249V22.6664V22.5488H12.1721V22.6664V28.8566C12.1721 29.0505 12.2119 29.1929 12.2918 29.2791C12.3726 29.3669 12.5026 29.41 12.682 29.41C12.8232 29.41 13.0009 29.352 13.2164 29.2377C13.4309 29.1217 13.6281 28.9742 13.8083 28.7953V22.6664V22.5488H15.7229V22.6664ZM23.0944 24.6266V29.072V29.1913C23.0944 29.7762 22.9445 30.2235 22.6447 30.5351C22.3446 30.8432 21.9105 30.999 21.3439 30.999C20.9694 30.999 20.6365 30.9393 20.3432 30.82C20.0491 30.6991 19.7766 30.5135 19.5247 30.2633V30.7769V30.8962H17.5919V30.7769V19.7404V19.6228H19.5247V19.7404V23.2132C19.7832 22.9614 20.0565 22.7708 20.3465 22.6416C20.6373 22.5107 20.9315 22.4444 21.228 22.4444C21.8327 22.4444 22.2967 22.6201 22.6156 22.9714C22.9345 23.3226 23.0944 23.8346 23.0944 24.5074V24.6266ZM30.1727 24.8784V26.8552V26.9745H26.5102V28.4076C26.5102 28.8401 26.5731 29.14 26.6991 29.3073C26.8258 29.4747 27.0412 29.5592 27.346 29.5592C27.6634 29.5592 27.8862 29.488 28.0129 29.3455C28.1389 29.2046 28.2018 28.8914 28.2018 28.4076V27.9553V27.836H30.1727V27.9553V28.454V28.5733C30.1727 29.4166 29.9333 30.0513 29.4529 30.4787C28.9731 30.9063 28.2565 31.1183 27.303 31.1183C26.4456 31.1183 25.7713 30.8913 25.2783 30.439C24.7862 29.9867 24.5394 29.3637 24.5394 28.5733V28.454V24.8784V24.7608C24.5394 24.0467 24.8102 23.4651 25.3504 23.0144C25.8913 22.5654 26.5915 22.3401 27.448 22.3401C28.3245 22.3401 28.9972 22.5488 29.4678 22.9647C29.9367 23.3806 30.1727 23.9804 30.1727 24.7608V24.8784H30.1727Z" fill="#F8F7F7"/>
</svg>
